<svg width="166" height="33" viewBox="0 0 166 33" fill="none" xmlns="http://www.w3.org/2000/svg">
<path fill-rule="evenodd" clip-rule="evenodd" d="M49.6811 9.03014H52.2153V23.8479H49.6811V17.5985H42.4229V23.8479H39.8672V9.03014H42.4229V15.1934H49.6811V9.03014ZM65.2432 18.3923C65.2432 18.6935 65.2217 19.0377 65.1787 19.3367H56.3091C56.6963 20.905 58.0495 21.9354 59.8307 21.9354C61.2699 21.9354 62.4939 21.2492 63.1178 20.4317L64.7484 21.8279C63.6319 23.224 61.8292 24.106 59.7661 24.106C56.2876 24.106 53.7104 21.6127 53.7104 18.3278C53.7104 15.0859 56.2015 12.6378 59.4886 12.6378C62.7736 12.6378 65.2432 15.0859 65.2432 18.3923ZM59.4671 14.8062C57.8989 14.8062 56.6748 15.8367 56.2876 17.3619H62.666C62.3003 15.8151 61.0332 14.8062 59.4671 14.8062ZM75.0894 12.8938H77.4945V23.8479H75.0894V22.2796C74.188 23.4176 72.8564 24.106 71.2452 24.106C68.1538 24.106 65.8563 21.6364 65.8563 18.3708C65.8563 15.1074 68.1538 12.6378 71.2452 12.6378C72.8564 12.6378 74.188 13.324 75.0894 14.462V12.8938ZM71.7184 21.7848C73.6502 21.7848 75.0894 20.3026 75.0894 18.3708C75.0894 16.439 73.6502 14.9568 71.7184 14.9568C69.7651 14.9568 68.3259 16.439 68.3259 18.3708C68.3259 20.3026 69.7651 21.7848 71.7184 21.7848ZM79.5038 23.8479V8.38477H81.9088V23.8479H79.5038ZM90.5009 15.0859H87.4096V20.2618C87.4096 21.2922 87.9882 21.7848 88.9972 21.7848C89.5995 21.7848 90.0706 21.6127 90.5009 21.3998V23.6543C89.9007 23.9554 89.2984 24.106 88.5045 24.106C86.1425 24.106 85.0045 22.7744 85.0045 20.6468V15.0859H83.1566V12.8938H85.0045V10.0606H87.4096V12.8938H90.5009V15.0859ZM97.9141 12.6378C100.513 12.6378 102.253 14.3545 102.253 16.9531V23.8479H99.848V17.7491C99.848 16.0733 98.7746 14.9568 97.1203 14.9568C95.3799 14.9568 94.2204 16.0948 94.2204 17.7921V23.8479H91.8153V8.38477H94.2204V14.376C95.1024 13.238 96.3695 12.6378 97.9141 12.6378ZM113.063 15.9872C114.567 16.4605 115.619 18.0266 115.619 19.8315C115.619 22.1721 113.835 23.8479 111.473 23.8479H104.258V9.03014H110.979C113.171 9.03014 114.844 10.6178 114.844 12.7668C114.844 14.2039 114.094 15.4494 113.063 15.9872ZM110.357 11.3277H106.728V15.1074H110.357C111.387 15.1074 112.224 14.2899 112.224 13.2164C112.224 12.143 111.43 11.3277 110.357 11.3277ZM110.871 21.5482C112.076 21.5482 112.977 20.6038 112.977 19.4013C112.977 18.1987 112.076 17.2758 110.871 17.2758H106.728V21.5482H110.871ZM121.586 24.106C118.538 24.106 116.518 22.2796 116.518 19.4873V12.8938H118.925V19.1646C118.925 20.7329 119.999 21.7848 121.586 21.7848C123.176 21.7848 124.228 20.7329 124.228 19.1646V12.8938H126.635V19.4873C126.635 22.2796 124.615 24.106 121.586 24.106ZM134.707 12.6378C137.777 12.6378 140.098 15.1074 140.098 18.3708C140.098 21.6364 137.777 24.106 134.707 24.106C133.095 24.106 131.744 23.4176 130.841 22.2581V23.8479H128.436V8.38477H130.841V14.4835C131.744 13.324 133.095 12.6378 134.707 12.6378ZM134.233 21.7848C136.167 21.7848 137.604 20.3026 137.604 18.3708C137.604 16.439 136.167 14.9568 134.233 14.9568C132.302 14.9568 130.841 16.439 130.841 18.3708C130.841 20.3026 132.302 21.7848 134.233 21.7848ZM147.732 12.6378C150.802 12.6378 153.121 15.1074 153.121 18.3708C153.121 21.6364 150.802 24.106 147.732 24.106C146.121 24.106 144.768 23.4176 143.867 22.2581V23.8479H141.459V8.38477H143.867V14.4835C144.768 13.324 146.121 12.6378 147.732 12.6378ZM147.259 21.7848C149.191 21.7848 150.632 20.3026 150.632 18.3708C150.632 16.439 149.191 14.9568 147.259 14.9568C145.325 14.9568 143.867 16.439 143.867 18.3708C143.867 20.3026 145.325 21.7848 147.259 21.7848ZM163.097 12.8938H165.504V23.8479H163.097V22.2796C162.195 23.4176 160.864 24.106 159.252 24.106C156.161 24.106 153.861 21.6364 153.861 18.3708C153.861 15.1074 156.161 12.6378 159.252 12.6378C160.864 12.6378 162.195 13.324 163.097 14.462V12.8938ZM159.726 21.7848C161.657 21.7848 163.097 20.3026 163.097 18.3708C163.097 16.439 161.657 14.9568 159.726 14.9568C157.772 14.9568 156.331 16.439 156.331 18.3708C156.331 20.3026 157.772 21.7848 159.726 21.7848Z" fill="#131316"/>
<path fill-rule="evenodd" clip-rule="evenodd" d="M19.6386 19.0953L17.6293 19.0781L17.625 21.0917H19.6407L19.6386 19.0953Z" fill="#57EE9F"/>
<path fill-rule="evenodd" clip-rule="evenodd" d="M17.625 18.6407H19.6407L19.6386 16.6444L17.6293 16.625L17.625 18.6407Z" fill="#57EE9F"/>
<path fill-rule="evenodd" clip-rule="evenodd" d="M17.2167 18.6407V16.625L15.2053 16.6272L15.2031 18.6214L17.2167 18.6407Z" fill="#57EE9F"/>
<path fill-rule="evenodd" clip-rule="evenodd" d="M17.2167 19.0781L15.2053 19.0803L15.2031 21.0745L17.2188 21.0938L17.2167 19.0781Z" fill="#57EE9F"/>
<path fill-rule="evenodd" clip-rule="evenodd" d="M15.436 11.4636C15.8104 11.1064 17.355 9.52529 17.5421 9.44354L18.7511 10.6848C19.1663 11.0914 19.5514 11.4743 19.9687 11.8809L24.8542 16.7233C25.2629 17.1321 25.6566 17.5214 26.0718 17.9216C26.3536 18.1905 27.0656 18.8746 27.2808 19.1521L25.4329 19.1585L25.4178 23.3147C21.9027 23.3018 18.5683 24.0053 15.8211 25.3627C15.1714 25.6832 14.5239 26.0597 13.9754 26.434C12.7642 27.2601 12.3877 27.6387 11.4111 28.6261L10.8991 29.1984C10.3677 29.8308 9.83422 30.7365 9.72881 30.8806C9.80196 31.4012 9.99772 31.7304 10.4774 32.1262C10.5205 32.1628 10.5743 32.1972 10.6345 32.2316C10.8926 31.7046 11.964 30.5579 12.4523 30.0997C12.6889 29.876 12.8782 29.6759 13.1385 29.4544C15.1069 27.7656 17.3463 26.4727 19.9278 25.6122C21.0078 25.2508 23.1418 24.7044 24.2669 24.6399V24.6851C24.439 24.3151 24.7337 23.9967 25.0779 23.816L25.1855 23.7622C25.7491 23.5083 26.1729 23.5815 26.857 23.5815C28.2015 23.5815 29.546 23.5815 30.8927 23.5815C31.4111 23.5815 31.7166 23.5858 32.078 23.4115L32.3878 23.2287C32.4244 23.2007 32.4588 23.1835 32.4911 23.1555C32.732 22.9512 32.9471 22.6823 33.0547 22.3789C33.1085 22.224 33.1795 22.0197 33.1795 21.8218V10.816C33.1795 10.4525 33.0224 10.1061 32.8331 9.82216C32.7664 9.72105 32.6029 9.54895 32.5126 9.47366C32.3792 9.3661 32.2609 9.28435 32.0931 9.2069C31.9317 9.13161 31.7855 9.08213 31.5811 9.04986C31.2606 8.99608 27.2765 9.02405 26.857 9.02405C26.0546 9.02405 25.2995 9.12731 24.6756 8.497C24.0023 7.81936 24.1034 7.23852 24.1034 6.35866V2.29282C24.1034 1.52053 24.069 1.23011 23.6731 0.696605C23.5226 0.494389 23.3203 0.358861 23.1138 0.234089C22.9224 0.117922 22.5631 0.00390625 22.3243 0.00390625H11.4713C11.2411 0.00390625 10.8797 0.115771 10.6904 0.229786C10.5463 0.313685 10.4129 0.397583 10.2946 0.518052C10.1117 0.703059 9.98266 0.857948 9.86864 1.11179C9.703 1.48181 9.69439 1.76362 9.69439 2.29282V7.04276C9.69439 7.58487 9.58253 7.97425 9.23618 8.37868C8.96728 8.69061 8.62523 8.88207 8.22295 8.98102C7.8895 9.06062 7.31943 9.02405 6.91069 9.02405H2.83194C2.26832 9.02405 2.03383 9.01544 1.6251 9.18969C1.32823 9.31662 1.05287 9.54465 0.870013 9.78774C0.685007 10.033 0.5 10.4654 0.5 10.7859V21.8218C0.5 22.1617 0.676402 22.5403 0.859257 22.8006C1.04211 23.0673 1.31317 23.2739 1.60143 23.4115C1.96284 23.5858 2.27047 23.5815 2.78677 23.5815H6.83755C7.52164 23.5815 8.10678 23.4976 8.65965 23.7858C8.69407 23.8052 8.72634 23.8181 8.76506 23.8396L8.97373 23.9816C9.42119 24.3323 9.69439 24.8507 9.69439 25.4488V30.1987C9.69439 30.4246 9.70085 30.6203 9.71806 30.7946V19.193L7.57758 19.2317C7.63136 19.1134 7.65287 19.1112 7.74967 19.0209L10.9593 15.8886C11.1056 15.6692 10.884 12.565 11.0196 11.954H13.358L13.3666 13.475C13.657 13.2512 14.5519 12.3154 14.9219 11.9583C15.1026 11.7862 15.2575 11.6378 15.436 11.4636Z" fill="#57EE9F"/>
<path fill-rule="evenodd" clip-rule="evenodd" d="M22.1498 28.3355C18.555 28.2946 14.672 29.0949 11.798 31.2439C11.5571 31.4246 10.8127 32.0291 10.6406 32.2335C10.8859 32.3755 11.2344 32.4852 11.4753 32.4852H22.3283C22.5112 32.4852 22.7435 32.4185 22.8812 32.3669C23.0339 32.311 23.1888 32.2271 23.3157 32.1324C23.505 31.9926 23.6836 31.8162 23.8062 31.6161C23.9912 31.3171 24.1095 30.9471 24.1074 30.5771V28.4495C23.4491 28.4086 22.8295 28.3441 22.1498 28.3355Z" fill="#57EE9F"/>
</svg>
